<svg xmlns="http://www.w3.org/2000/svg" viewBox="0 0 760 600" role="img" aria-labelledby="t d">
<title id='t'>Bandwidth saved without losing events: place-aware vs vector-only dedupe</title>
<desc id='d'>Two stacked panels over the same dedupe-similarity axis. Top: bytes sent as a percent of sending everything. Bottom: percent of real-world events still retrievable from the cloud copy.</desc>
<style>
svg{--surface:#fcfcfb;--ink:#0b0b0b;--ink2:#52514e;--grid:#e4e3df;--s1:#2a78d6;--s2:#eb6834;--ref:#8a8985}
@media (prefers-color-scheme: dark){svg{--surface:#1a1a19;--ink:#ffffff;--ink2:#c3c2b7;--grid:#333331;--s1:#3987e5;--s2:#d95926;--ref:#8a8985}}
text{font-family:system-ui,-apple-system,'Segoe UI',Roboto,sans-serif;fill:var(--ink2);font-size:12px}
.h{fill:var(--ink);font-size:14px;font-weight:600}
.grid{stroke:var(--grid);stroke-width:1}
.ln{fill:none;stroke-width:2;stroke-linecap:round;stroke-linejoin:round}
</style>
<rect width="760" height="600" fill="var(--surface)"/>
<text class="h" x="64" y="24">Place-aware dedupe keeps the events that place-blind dedupe loses</text>
<line x1="64" y1="52" x2="82" y2="52" stroke="var(--s1)" stroke-width="2" stroke-linecap="round"/>
<circle cx="73" cy="52" r="4" fill="var(--s1)" stroke="var(--surface)" stroke-width="2"/>
<text x="90" y="56">LOCI place-aware dedupe</text>
<line x1="314" y1="52" x2="332" y2="52" stroke="var(--s2)" stroke-width="2" stroke-linecap="round"/>
<circle cx="323" cy="52" r="4" fill="var(--s2)" stroke="var(--surface)" stroke-width="2"/>
<text x="340" y="56">vector-only dedupe (place-blind)</text>
<line class="grid" x1="64" y1="282.0" x2="630" y2="282.0"/>
<text x="56" y="286.0" text-anchor="end">0</text>
<line class="grid" x1="64" y1="239.5" x2="630" y2="239.5"/>
<text x="56" y="243.5" text-anchor="end">25</text>
<line class="grid" x1="64" y1="197.0" x2="630" y2="197.0"/>
<text x="56" y="201.0" text-anchor="end">50</text>
<line class="grid" x1="64" y1="154.5" x2="630" y2="154.5"/>
<text x="56" y="158.5" text-anchor="end">75</text>
<line class="grid" x1="64" y1="112.0" x2="630" y2="112.0"/>
<text x="56" y="116.0" text-anchor="end">100</text>
<text x="64" y="100">Bytes sent, % of sending everything (lower is better)</text>
<line class="grid" x1="225.7" y1="112" x2="225.7" y2="282" style="stroke:var(--ref)"/>
<text x="638" y="116.0">send everything</text>
<path class="ln" d="M64.0 112.0 L144.9 158.5 L225.7 256.9 L306.6 261.2 L387.4 261.2 L468.3 262.3 L549.1 263.4 L630.0 263.4" stroke="var(--s1)"/>
<circle cx="64.0" cy="112.0" r="4" fill="var(--s1)" stroke="var(--surface)" stroke-width="2"><title>LOCI place-aware, threshold 0.99: 100% bytes sent</title></circle>
<circle cx="144.9" cy="158.5" r="4" fill="var(--s1)" stroke="var(--surface)" stroke-width="2"><title>LOCI place-aware, threshold 0.97: 73% bytes sent</title></circle>
<circle cx="225.7" cy="256.9" r="4" fill="var(--s1)" stroke="var(--surface)" stroke-width="2"><title>LOCI place-aware, threshold 0.95: 15% bytes sent</title></circle>
<circle cx="306.6" cy="261.2" r="4" fill="var(--s1)" stroke="var(--surface)" stroke-width="2"><title>LOCI place-aware, threshold 0.92: 12% bytes sent</title></circle>
<circle cx="387.4" cy="261.2" r="4" fill="var(--s1)" stroke="var(--surface)" stroke-width="2"><title>LOCI place-aware, threshold 0.9: 12% bytes sent</title></circle>
<circle cx="468.3" cy="262.3" r="4" fill="var(--s1)" stroke="var(--surface)" stroke-width="2"><title>LOCI place-aware, threshold 0.85: 12% bytes sent</title></circle>
<circle cx="549.1" cy="263.4" r="4" fill="var(--s1)" stroke="var(--surface)" stroke-width="2"><title>LOCI place-aware, threshold 0.8: 11% bytes sent</title></circle>
<circle cx="630.0" cy="263.4" r="4" fill="var(--s1)" stroke="var(--surface)" stroke-width="2"><title>LOCI place-aware, threshold 0.7: 11% bytes sent</title></circle>
<path class="ln" d="M64.0 112.0 L144.9 160.8 L225.7 265.1 L306.6 270.4 L387.4 270.4 L468.3 270.8 L549.1 274.0 L630.0 274.0" stroke="var(--s2)"/>
<circle cx="64.0" cy="112.0" r="4" fill="var(--s2)" stroke="var(--surface)" stroke-width="2"><title>vector-only dedupe, threshold 0.99: 100% bytes sent</title></circle>
<circle cx="144.9" cy="160.8" r="4" fill="var(--s2)" stroke="var(--surface)" stroke-width="2"><title>vector-only dedupe, threshold 0.97: 71% bytes sent</title></circle>
<circle cx="225.7" cy="265.1" r="4" fill="var(--s2)" stroke="var(--surface)" stroke-width="2"><title>vector-only dedupe, threshold 0.95: 10% bytes sent</title></circle>
<circle cx="306.6" cy="270.4" r="4" fill="var(--s2)" stroke="var(--surface)" stroke-width="2"><title>vector-only dedupe, threshold 0.92: 7% bytes sent</title></circle>
<circle cx="387.4" cy="270.4" r="4" fill="var(--s2)" stroke="var(--surface)" stroke-width="2"><title>vector-only dedupe, threshold 0.9: 7% bytes sent</title></circle>
<circle cx="468.3" cy="270.8" r="4" fill="var(--s2)" stroke="var(--surface)" stroke-width="2"><title>vector-only dedupe, threshold 0.85: 7% bytes sent</title></circle>
<circle cx="549.1" cy="274.0" r="4" fill="var(--s2)" stroke="var(--surface)" stroke-width="2"><title>vector-only dedupe, threshold 0.8: 5% bytes sent</title></circle>
<circle cx="630.0" cy="274.0" r="4" fill="var(--s2)" stroke="var(--surface)" stroke-width="2"><title>vector-only dedupe, threshold 0.7: 5% bytes sent</title></circle>
<line class="grid" x1="64" y1="522.0" x2="630" y2="522.0"/>
<text x="56" y="526.0" text-anchor="end">0</text>
<line class="grid" x1="64" y1="479.5" x2="630" y2="479.5"/>
<text x="56" y="483.5" text-anchor="end">25</text>
<line class="grid" x1="64" y1="437.0" x2="630" y2="437.0"/>
<text x="56" y="441.0" text-anchor="end">50</text>
<line class="grid" x1="64" y1="394.5" x2="630" y2="394.5"/>
<text x="56" y="398.5" text-anchor="end">75</text>
<line class="grid" x1="64" y1="352.0" x2="630" y2="352.0"/>
<text x="56" y="356.0" text-anchor="end">100</text>
<text x="64" y="340">Real-world events still retrievable from the cloud, % (higher is better)</text>
<line class="grid" x1="225.7" y1="352" x2="225.7" y2="522" style="stroke:var(--ref)"/>
<text x="225.7" y="554" text-anchor="middle">default</text>
<path class="ln" d="M64.0 352.0 L144.9 352.0 L225.7 352.0 L306.6 352.0 L387.4 352.0 L468.3 356.2 L549.1 369.0 L630.0 369.0" stroke="var(--s1)"/>
<circle cx="64.0" cy="352.0" r="4" fill="var(--s1)" stroke="var(--surface)" stroke-width="2"><title>LOCI place-aware, threshold 0.99: 100% events retrievable</title></circle>
<circle cx="144.9" cy="352.0" r="4" fill="var(--s1)" stroke="var(--surface)" stroke-width="2"><title>LOCI place-aware, threshold 0.97: 100% events retrievable</title></circle>
<circle cx="225.7" cy="352.0" r="4" fill="var(--s1)" stroke="var(--surface)" stroke-width="2"><title>LOCI place-aware, threshold 0.95: 100% events retrievable</title></circle>
<circle cx="306.6" cy="352.0" r="4" fill="var(--s1)" stroke="var(--surface)" stroke-width="2"><title>LOCI place-aware, threshold 0.92: 100% events retrievable</title></circle>
<circle cx="387.4" cy="352.0" r="4" fill="var(--s1)" stroke="var(--surface)" stroke-width="2"><title>LOCI place-aware, threshold 0.9: 100% events retrievable</title></circle>
<circle cx="468.3" cy="356.2" r="4" fill="var(--s1)" stroke="var(--surface)" stroke-width="2"><title>LOCI place-aware, threshold 0.85: 98% events retrievable</title></circle>
<circle cx="549.1" cy="369.0" r="4" fill="var(--s1)" stroke="var(--surface)" stroke-width="2"><title>LOCI place-aware, threshold 0.8: 90% events retrievable</title></circle>
<circle cx="630.0" cy="369.0" r="4" fill="var(--s1)" stroke="var(--surface)" stroke-width="2"><title>LOCI place-aware, threshold 0.7: 90% events retrievable</title></circle>
<path class="ln" d="M64.0 352.0 L144.9 356.2 L225.7 373.2 L306.6 386.0 L387.4 386.0 L468.3 390.2 L549.1 428.5 L630.0 428.5" stroke="var(--s2)"/>
<circle cx="64.0" cy="352.0" r="4" fill="var(--s2)" stroke="var(--surface)" stroke-width="2"><title>vector-only dedupe, threshold 0.99: 100% events retrievable</title></circle>
<circle cx="144.9" cy="356.2" r="4" fill="var(--s2)" stroke="var(--surface)" stroke-width="2"><title>vector-only dedupe, threshold 0.97: 98% events retrievable</title></circle>
<circle cx="225.7" cy="373.2" r="4" fill="var(--s2)" stroke="var(--surface)" stroke-width="2"><title>vector-only dedupe, threshold 0.95: 88% events retrievable</title></circle>
<circle cx="306.6" cy="386.0" r="4" fill="var(--s2)" stroke="var(--surface)" stroke-width="2"><title>vector-only dedupe, threshold 0.92: 80% events retrievable</title></circle>
<circle cx="387.4" cy="386.0" r="4" fill="var(--s2)" stroke="var(--surface)" stroke-width="2"><title>vector-only dedupe, threshold 0.9: 80% events retrievable</title></circle>
<circle cx="468.3" cy="390.2" r="4" fill="var(--s2)" stroke="var(--surface)" stroke-width="2"><title>vector-only dedupe, threshold 0.85: 78% events retrievable</title></circle>
<circle cx="549.1" cy="428.5" r="4" fill="var(--s2)" stroke="var(--surface)" stroke-width="2"><title>vector-only dedupe, threshold 0.8: 55% events retrievable</title></circle>
<circle cx="630.0" cy="428.5" r="4" fill="var(--s2)" stroke="var(--surface)" stroke-width="2"><title>vector-only dedupe, threshold 0.7: 55% events retrievable</title></circle>
<circle cx="644" cy="369.0" r="4" fill="var(--s1)"/>
<text x="652" y="373.0">place-aware</text>
<circle cx="644" cy="428.5" r="4" fill="var(--s2)"/>
<text x="652" y="432.5">vector-only</text>
<text x="64.0" y="538" text-anchor="middle">0.99</text>
<text x="144.9" y="538" text-anchor="middle">0.97</text>
<text x="225.7" y="538" text-anchor="middle">0.95</text>
<text x="306.6" y="538" text-anchor="middle">0.92</text>
<text x="387.4" y="538" text-anchor="middle">0.90</text>
<text x="468.3" y="538" text-anchor="middle">0.85</text>
<text x="549.1" y="538" text-anchor="middle">0.80</text>
<text x="630.0" y="538" text-anchor="middle">0.70</text>
<text x="347.0" y="588" text-anchor="middle">dedupe similarity threshold — further right = more aggressive suppression</text>
</svg>